HIERARCHY
ROOT reference
{
  OFFSET 0 0 0
  CHANNELS 6 Xposition Yposition Zposition Zrotation Xrotation Yrotation
  JOINT Hips
  {
    OFFSET 349.773 89.4622 219.413
    CHANNELS 3 Zrotation Xrotation Yrotation
    JOINT RightUpLeg
    {
      OFFSET -9.25229 -1.56476 -0.00486621
      CHANNELS 3 Zrotation Xrotation Yrotation
      JOINT RightLeg
      {
        OFFSET 0.0546168 -41.8841 0.068862
        CHANNELS 3 Zrotation Xrotation Yrotation
        JOINT RightFoot
        {
          OFFSET -1.63893 -40.8901 3.53979
          CHANNELS 3 Zrotation Xrotation Yrotation
          End Site
          {
            OFFSET 0 -7.69 17.5
          }
        }
      }
    }
    JOINT LeftUpLeg
    {
      OFFSET 9.30241 -1.63853 -0.0284428
      CHANNELS 3 Zrotation Xrotation Yrotation
      JOINT LeftLeg
      {
        OFFSET 0.0539686 -41.842 -0.0517406
        CHANNELS 3 Zrotation Xrotation Yrotation
        JOINT LeftFoot
        {
          OFFSET 1.12518 -42.5382 -2.5849
          CHANNELS 3 Zrotation Xrotation Yrotation
          End Site
          {
            OFFSET 0 -7.69 17.5
          }
        }
      }
    }
    JOINT Spine
    {
      OFFSET 0.0144198 14.3187 0.0981135
      CHANNELS 3 Zrotation Xrotation Yrotation
      JOINT Spine1
      {
        OFFSET 0.0112165 9.7169 0.0514987
        CHANNELS 3 Zrotation Xrotation Yrotation
        JOINT Spine2
        {
          OFFSET 0.0255827 10.1205 -0.00638435
          CHANNELS 3 Zrotation Xrotation Yrotation
          JOINT Spine3
          {
            OFFSET -0.00190646 9.72552 0.024249
            CHANNELS 3 Zrotation Xrotation Yrotation
            JOINT Neck
            {
              OFFSET -0.136438 10.3681 0.0553958
              CHANNELS 3 Zrotation Xrotation Yrotation
              JOINT Head
              {
                OFFSET 0.0264476 9.5071 0.170402
                CHANNELS 3 Zrotation Xrotation Yrotation
                End Site
                {
                  OFFSET 0 15.95 0
                }
              }
            }
            JOINT RightShoulder
            {
              OFFSET -3.1747 6.92483 0.00547946
              CHANNELS 3 Zrotation Xrotation Yrotation
              JOINT RightArm
              {
                OFFSET -12.7755 -0.0136287 0.0362428
                CHANNELS 3 Zrotation Xrotation Yrotation
                JOINT RightForeArm
                {
                  OFFSET -26.5642 -0.108975 -0.0233747
                  CHANNELS 3 Zrotation Xrotation Yrotation
                  JOINT RightHand
                  {
                    OFFSET -25.905 -0.185223 0.00356295
                    CHANNELS 3 Zrotation Xrotation Yrotation
                    JOINT RightHandThumb1
                    {
                      OFFSET -2.48905 0.190105 3.12053
                      CHANNELS 3 Zrotation Xrotation Yrotation
                      JOINT RightHandThumb2
                      {
                        OFFSET -3.68274 0 0
                        CHANNELS 3 Zrotation Xrotation Yrotation
                        JOINT RightHandThumb3
                        {
                          OFFSET -2.55832 0 0
                          CHANNELS 3 Zrotation Xrotation Yrotation
                          End Site
                          {
                            OFFSET -2.194 0 0
                          }
                        }
                      }
                    }
                    JOINT RightInHandIndex
                    {
                      OFFSET -3.22368 0.508421 1.97842
                      CHANNELS 3 Zrotation Xrotation Yrotation
                      JOINT RightHandIndex1
                      {
                        OFFSET -5.21684 -0.091368 0.999158
                        CHANNELS 3 Zrotation Xrotation Yrotation
                        JOINT RightHandIndex2
                        {
                          OFFSET -3.61937 0 0
                          CHANNELS 3 Zrotation Xrotation Yrotation
                          JOINT RightHandIndex3
                          {
                            OFFSET -2.0521 0 0
                            CHANNELS 3 Zrotation Xrotation Yrotation
                            End Site
                            {
                              OFFSET -1.805 0 0
                            }
                          }
                        }
                      }
                    }
                    JOINT RightInHandMiddle
                    {
                      OFFSET -3.38211 0.517263 0.756737
                      CHANNELS 3 Zrotation Xrotation Yrotation
                      JOINT RightHandMiddle1
                      {
                        OFFSET -5.17411 -0.084 0.313895
                        CHANNELS 3 Zrotation Xrotation Yrotation
                        JOINT RightHandMiddle2
                        {
                          OFFSET -3.94947 0 0
                          CHANNELS 3 Zrotation Xrotation Yrotation
                          JOINT RightHandMiddle3
                          {
                            OFFSET -2.47579 0 0
                            CHANNELS 3 Zrotation Xrotation Yrotation
                            End Site
                            {
                              OFFSET -1.975 0 0
                            }
                          }
                        }
                      }
                    }
                    JOINT RightInHandRing
                    {
                      OFFSET -3.36516 0.537895 -0.128947
                      CHANNELS 3 Zrotation Xrotation Yrotation
                      JOINT RightHandRing1
                      {
                        OFFSET -4.63474 -0.022105 -0.478947
                        CHANNELS 3 Zrotation Xrotation Yrotation
                        JOINT RightHandRing2
                        {
                          OFFSET -3.44238 0 0
                          CHANNELS 3 Zrotation Xrotation Yrotation
                          JOINT RightHandRing3
                          {
                            OFFSET -2.3881 0 0
                            CHANNELS 3 Zrotation Xrotation Yrotation
                            End Site
                            {
                              OFFSET -1.857 0 0
                            }
                          }
                        }
                      }
                    }
                    JOINT RightInHandPinky
                    {
                      OFFSET -3.16105 0.469368 -1.20179
                      CHANNELS 3 Zrotation Xrotation Yrotation
                      JOINT RightHandPinky1
                      {
                        OFFSET -4.14105 -0.022105 -1.09053
                        CHANNELS 3 Zrotation Xrotation Yrotation
                        JOINT RightHandPinky2
                        {
                          OFFSET -2.75653 0 0
                          CHANNELS 3 Zrotation Xrotation Yrotation
                          JOINT RightHandPinky3
                          {
                            OFFSET -1.74189 0 0
                            CHANNELS 3 Zrotation Xrotation Yrotation
                            End Site
                            {
                              OFFSET -1.645 0 0
                            }
                          }
                        }
                      }
                    }
                  }
                }
              }
            }
            JOINT LeftShoulder
            {
              OFFSET 3.23079 6.93624 -0.032633
              CHANNELS 3 Zrotation Xrotation Yrotation
              JOINT LeftArm
              {
                OFFSET 12.8235 -0.00564763 -0.0637926
                CHANNELS 3 Zrotation Xrotation Yrotation
                JOINT LeftForeArm
                {
                  OFFSET 26.4641 -0.00020372 -0.0407631
                  CHANNELS 3 Zrotation Xrotation Yrotation
                  JOINT LeftHand
                  {
                    OFFSET 25.9912 -0.0207868 -0.0178714
                    CHANNELS 3 Zrotation Xrotation Yrotation
                    JOINT LeftHandThumb1
                    {
                      OFFSET 2.48905 0.190105 3.12053
                      CHANNELS 3 Zrotation Xrotation Yrotation
                      JOINT LeftHandThumb2
                      {
                        OFFSET 3.68274 0 0
                        CHANNELS 3 Zrotation Xrotation Yrotation
                        JOINT LeftHandThumb3
                        {
                          OFFSET 2.55832 0 0
                          CHANNELS 3 Zrotation Xrotation Yrotation
                          End Site
                          {
                            OFFSET 2.194 0 0
                          }
                        }
                      }
                    }
                    JOINT LeftInHandIndex
                    {
                      OFFSET 3.22368 0.508421 1.97842
                      CHANNELS 3 Zrotation Xrotation Yrotation
                      JOINT LeftHandIndex1
                      {
                        OFFSET 5.21684 -0.091368 0.999158
                        CHANNELS 3 Zrotation Xrotation Yrotation
                        JOINT LeftHandIndex2
                        {
                          OFFSET 3.61937 0 0
                          CHANNELS 3 Zrotation Xrotation Yrotation
                          JOINT LeftHandIndex3
                          {
                            OFFSET 2.0521 0 0
                            CHANNELS 3 Zrotation Xrotation Yrotation
                            End Site
                            {
                              OFFSET 1.805 0 0
                            }
                          }
                        }
                      }
                    }
                    JOINT LeftInHandMiddle
                    {
                      OFFSET 3.38211 0.517263 0.756737
                      CHANNELS 3 Zrotation Xrotation Yrotation
                      JOINT LeftHandMiddle1
                      {
                        OFFSET 5.17411 -0.084 0.313895
                        CHANNELS 3 Zrotation Xrotation Yrotation
                        JOINT LeftHandMiddle2
                        {
                          OFFSET 3.94947 0 0
                          CHANNELS 3 Zrotation Xrotation Yrotation
                          JOINT LeftHandMiddle3
                          {
                            OFFSET 2.47579 0 0
                            CHANNELS 3 Zrotation Xrotation Yrotation
                            End Site
                            {
                              OFFSET 1.975 0 0
                            }
                          }
                        }
                      }
                    }
                    JOINT LeftInHandRing
                    {
                      OFFSET 3.36516 0.537895 -0.128947
                      CHANNELS 3 Zrotation Xrotation Yrotation
                      JOINT LeftHandRing1
                      {
                        OFFSET 4.63474 -0.022105 -0.478947
                        CHANNELS 3 Zrotation Xrotation Yrotation
                        JOINT LeftHandRing2
                        {
                          OFFSET 3.44238 0 0
                          CHANNELS 3 Zrotation Xrotation Yrotation
                          JOINT LeftHandRing3
                          {
                            OFFSET 2.3881 0 0
                            CHANNELS 3 Zrotation Xrotation Yrotation
                            End Site
                            {
                              OFFSET 1.857 0 0
                            }
                          }
                        }
                      }
                    }
                    JOINT LeftInHandPinky
                    {
                      OFFSET 3.16105 0.469368 -1.20179
                      CHANNELS 3 Zrotation Xrotation Yrotation
                      JOINT LeftHandPinky1
                      {
                        OFFSET 4.14105 -0.022105 -1.09053
                        CHANNELS 3 Zrotation Xrotation Yrotation
                        JOINT LeftHandPinky2
                        {
                          OFFSET 2.75653 0 0
                          CHANNELS 3 Zrotation Xrotation Yrotation
                          JOINT LeftHandPinky3
                          {
                            OFFSET 1.74189 0 0
                            CHANNELS 3 Zrotation Xrotation Yrotation
                            End Site
                            {
                              OFFSET 1.645 0 0
                            }
                          }
                        }
                      }
                    }
                  }
                }
              }
            }
          }
        }
      }
    }
  }
}
MOTION
Frames: 2
Frame Time: 0.00833333
1.500000000000000000e+02 0.000000000000000000e+00 0.000000000000000000e+00 0.000000000000000000e+00 0.000000000000000000e+00 -0.000000000000000000e+00 -9.191227149113244052e-03 -1.157228815662799115e-01 -6.750488565712252365e-02 -3.270330734850771665e-02 -1.970787164731440180e-03 1.065812150617283516e-01 2.857759769343585447e-04 1.073739355414899972e-03 4.963794426257779613e-03 -2.027696027063595561e-03 -3.325784842831550677e-04 -1.882532813563197191e-03 -7.903886044506448771e-02 1.507046085659865392e-02 8.431489932675896581e-02 1.684290388100974714e-03 -1.082331461436425489e-03 -2.710922872496978903e-03 1.404907620639962761e-03 6.912070832983097622e-04 -1.577577250183861187e-03 -5.575174500740953665e-02 -2.628550467331948123e-02 1.874461378039001674e-02 -1.335587949495690291e-02 -9.297025552613092866e-03 5.241334993340038967e-03 -2.215552503664982437e-02 -1.504334228769469393e-02 8.648204433697990329e-03 -6.178562158253647022e-04 -3.198432126367241400e-04 5.673922185257657927e-05 9.894563340850275404e-04 -6.427811049011276229e-03 1.049114650037843120e-02 -1.040663752566136149e-02 1.359805762230719035e-02 -2.121848009806699470e-04 -1.909138159373667890e-02 -1.898197327177902297e-03 3.384254022849240290e-02 -1.321179573255973697e-02 -2.986277586431810085e-02 -2.823519110332751991e-02 1.115105501114275685e-02 2.751507990926604572e-02 -4.466094365929961776e-04 -1.632491368308280379e-03 -2.832580402814580643e-03 -6.530124417315099142e-03 0.000000000000000000e+00 0.000000000000000000e+00 0.000000000000000000e+00 8.459534206676153958e-16 -1.290655693139809324e-15 0.000000000000000000e+00 -5.768002496700150749e-17 -3.241648812348788721e-15 0.000000000000000000e+00 1.088036227965910830e-15 2.871172135152510165e-15 -5.502342914036024256e-15 0.000000000000000000e+00 0.000000000000000000e+00 0.000000000000000000e+00 0.000000000000000000e+00 9.338142755509758578e-16 3.080918467011432663e-15 0.000000000000000000e+00 1.551553656151762284e-16 1.019248536265106423e-14 1.088036227965910830e-15 2.871172135152510165e-15 -5.502342914036024256e-15 0.000000000000000000e+00 -5.004197584676042618e-16 -2.525525208226920252e-15 0.000000000000000000e+00 -3.672482649602037409e-15 1.863877425857372190e-15 0.000000000000000000e+00 3.172378859611471703e-15 7.175221392964076628e-15 1.088036227965910830e-15 2.871172135152510165e-15 -5.502342914036024256e-15 0.000000000000000000e+00 0.000000000000000000e+00 0.000000000000000000e+00 0.000000000000000000e+00 3.603028999553026558e-15 -2.297917489346698267e-15 0.000000000000000000e+00 3.229687459509704302e-15 -1.973242153263003326e-15 1.088036227965910830e-15 2.871172135152510165e-15 -5.502342914036024256e-15 0.000000000000000000e+00 0.000000000000000000e+00 0.000000000000000000e+00 0.000000000000000000e+00 -7.594999329990975312e-16 -4.352095593064550143e-15 0.000000000000000000e+00 4.349943870660450059e-15 -4.624002903958523417e-15 -4.175999648971061469e-03 -7.343002673310744348e-03 3.543952503098006523e-02 7.799088691471156402e-03 -3.295596386814272916e-03 -1.015041731906414155e-02 -2.649470507768791113e-03 -2.971086439580485680e-03 4.742299022547511768e-03 -9.842308255420819177e-03 6.306527845737121274e-02 -7.967796089216416799e-02 0.000000000000000000e+00 0.000000000000000000e+00 0.000000000000000000e+00 -1.896749327369455382e-15 -2.532587082133861780e-15 0.000000000000000000e+00 -2.483068712427788236e-15 1.360404784089041476e-15 0.000000000000000000e+00 7.875642571917758181e-16 -2.010039032114383880e-15 -2.373704838247469977e-16 0.000000000000000000e+00 0.000000000000000000e+00 0.000000000000000000e+00 0.000000000000000000e+00 4.952043451614472542e-15 3.121517409584865459e-15 0.000000000000000000e+00 -1.412234030155555224e-15 1.815021131698009147e-15 7.875642571917758181e-16 -2.010039032114383880e-15 -2.373704838247469977e-16 0.000000000000000000e+00 -2.044007835306561013e-16 2.674267888413322993e-15 0.000000000000000000e+00 -6.246609834560021883e-16 1.030209940108166479e-15 0.000000000000000000e+00 2.144671953424349978e-15 -1.277640067828174595e-15 7.875642571917758181e-16 -2.010039032114383880e-15 -2.373704838247469977e-16 0.000000000000000000e+00 0.000000000000000000e+00 0.000000000000000000e+00 0.000000000000000000e+00 -2.487186442290186607e-15 7.958578310320193660e-16 0.000000000000000000e+00 3.459855509182403060e-15 -1.980782350531211621e-15 7.875642571917758181e-16 -2.010039032114383880e-15 -2.373704838247469977e-16 0.000000000000000000e+00 0.000000000000000000e+00 0.000000000000000000e+00 0.000000000000000000e+00 2.020913459903883318e-15 1.958726755581295402e-15 0.000000000000000000e+00 1.851876647969626884e-15 3.065997491588409478e-15
1.500000000000000000e+02 0.000000000000000000e+00 0.000000000000000000e+00 0.000000000000000000e+00 0.000000000000000000e+00 -0.000000000000000000e+00 2.753854154616898302e-03 9.713178210593873332e-03 2.310699494774820766e-03 3.941284892581286420e-03 3.365358252517345185e-04 -2.093011625841696699e-03 2.075193852823743832e-03 -8.709983571353754157e-04 -5.336684544556341385e-03 8.646723423411657554e-04 3.418862975572999931e-04 4.086335458553531485e-04 1.012989893217636564e-02 -3.675761724381601623e-03 -1.732133097703885630e-04 1.682408212470696239e-03 3.168607915728897158e-03 -3.817828499387507148e-03 -5.930182291017821212e-05 -1.877621857653123541e-03 2.268475357523653309e-03 -7.927719268289430340e-03 -1.524718246250924159e-03 6.741953216165442065e-04 -1.987246600560713811e-03 -1.588971883782429838e-03 2.566659023197440928e-04 -3.294650452904243285e-03 -1.411146955459136564e-03 1.582883052729816976e-04 1.009845953036065964e-03 1.177308615942660765e-03 -3.506308920989680027e-05 1.683400911183022795e-04 1.337369054662724405e-02 -1.624447651875995588e-02 1.692566804573282166e-02 -5.537431976680946832e-03 -3.943438469394796100e-03 2.072080250367845308e-02 1.462054522470825936e-02 1.271072562335658334e-04 4.306155377328069189e-02 6.005342150307793614e-02 7.866434856418262622e-02 -4.043512230859220430e-02 -7.362548362745093000e-02 2.291580818462286145e-02 -3.758440696814312025e-03 6.731570157463722705e-04 -2.223979901690653193e-03 0.000000000000000000e+00 0.000000000000000000e+00 0.000000000000000000e+00 -3.577584598114016992e-16 -1.958147289194611840e-15 0.000000000000000000e+00 -9.773531192891010603e-16 1.788379016562343226e-15 0.000000000000000000e+00 -2.737165926710321053e-16 -1.254208811697353887e-15 3.877783735186143358e-15 0.000000000000000000e+00 0.000000000000000000e+00 0.000000000000000000e+00 0.000000000000000000e+00 5.307874270265400444e-16 -1.788358583292295993e-15 0.000000000000000000e+00 9.067165422681982837e-18 -5.479809100552294496e-15 -2.737165926710321053e-16 -1.254208811697353887e-15 3.877783735186143358e-15 0.000000000000000000e+00 8.566623776083992176e-16 6.155499143469047476e-16 0.000000000000000000e+00 2.623122777622385268e-15 -1.371254357722314957e-15 0.000000000000000000e+00 -2.488521228420461671e-15 -3.960965424108159008e-15 -2.737165926710321053e-16 -1.254208811697353887e-15 3.877783735186143358e-15 0.000000000000000000e+00 0.000000000000000000e+00 0.000000000000000000e+00 0.000000000000000000e+00 -6.416686680985484832e-15 3.317967642980018887e-15 0.000000000000000000e+00 1.001610023462397821e-16 1.500919992626823534e-15 -2.737165926710321053e-16 -1.254208811697353887e-15 3.877783735186143358e-15 0.000000000000000000e+00 0.000000000000000000e+00 0.000000000000000000e+00 0.000000000000000000e+00 -1.166336810712088487e-15 3.034879199603637893e-15 0.000000000000000000e+00 -4.091407037202306866e-15 1.167109016215411138e-15 2.010949559888283028e-02 1.478563999066318316e-02 -1.040967086565441457e-04 1.965728070551552801e-03 -2.842107912157010915e-03 -3.865995160366992364e-03 2.764264877042491367e-03 -4.076566828164231827e-05 4.088903248589965088e-03 -1.189878345851693754e-02 3.698827826556418813e-02 -5.012446800106551414e-02 0.000000000000000000e+00 0.000000000000000000e+00 0.000000000000000000e+00 8.000028369960736470e-16 2.575695297568300448e-15 0.000000000000000000e+00 -1.182956443860549633e-16 -1.901439232310191122e-16 0.000000000000000000e+00 -6.319027730048600011e-16 1.690264911573212959e-15 1.872444062622641316e-16 0.000000000000000000e+00 0.000000000000000000e+00 0.000000000000000000e+00 0.000000000000000000e+00 -3.868544969607600310e-15 -1.448200585546226655e-16 0.000000000000000000e+00 2.389549517712753849e-15 -1.208127809022272551e-15 -6.319027730048600011e-16 1.690264911573212959e-15 1.872444062622641316e-16 0.000000000000000000e+00 -4.690176581326165551e-16 -4.112954069383318478e-18 0.000000000000000000e+00 -1.618887688297165821e-15 4.871319558609723025e-17 0.000000000000000000e+00 1.715999773130531314e-15 1.438480651992299118e-15 -6.319027730048600011e-16 1.690264911573212959e-15 1.872444062622641316e-16 0.000000000000000000e+00 0.000000000000000000e+00 0.000000000000000000e+00 0.000000000000000000e+00 6.882346429006177801e-16 2.710691667258736724e-16 0.000000000000000000e+00 2.707043710348559241e-17 1.766671287456432135e-15 -6.319027730048600011e-16 1.690264911573212959e-15 1.872444062622641316e-16 0.000000000000000000e+00 0.000000000000000000e+00 0.000000000000000000e+00 0.000000000000000000e+00 1.744674892323008667e-16 -1.638050830012451688e-15 0.000000000000000000e+00 -2.645696468512027509e-15 1.273176086142076952e-15
